# 3ds Max Wavefront OBJ Exporter v0.97b - (c)2007 guruware
# 创建的文件:26.11.2012 21:19:38

mtllib cube1126_2.mtl

#
# object ChamferBox001
#

v  -0.460 0.460 0.500
v  -0.460 -0.460 0.500
v  0.460 -0.460 0.500
v  0.460 0.460 0.500
v  -0.460 0.480 0.495
v  -0.470 0.477 0.495
v  -0.477 0.470 0.495
v  -0.480 0.460 0.495
v  -0.480 -0.460 0.495
v  -0.477 -0.470 0.495
v  -0.470 -0.477 0.495
v  -0.460 -0.480 0.495
v  0.460 -0.480 0.495
v  0.470 -0.477 0.495
v  0.477 -0.470 0.495
v  0.480 -0.460 0.495
v  0.480 0.460 0.495
v  0.477 0.470 0.495
v  0.470 0.477 0.495
v  0.460 0.480 0.495
v  -0.460 0.495 0.480
v  -0.477 0.490 0.480
v  -0.490 0.477 0.480
v  -0.495 0.460 0.480
v  -0.495 -0.460 0.480
v  -0.490 -0.477 0.480
v  -0.477 -0.490 0.480
v  -0.460 -0.495 0.480
v  0.460 -0.495 0.480
v  0.477 -0.490 0.480
v  0.490 -0.477 0.480
v  0.495 -0.460 0.480
v  0.495 0.460 0.480
v  0.490 0.477 0.480
v  0.477 0.490 0.480
v  0.460 0.495 0.480
v  -0.460 0.500 0.460
v  -0.480 0.495 0.460
v  -0.495 0.480 0.460
v  -0.500 0.460 0.460
v  -0.500 -0.460 0.460
v  -0.495 -0.480 0.460
v  -0.480 -0.495 0.460
v  -0.460 -0.500 0.460
v  0.460 -0.500 0.460
v  0.480 -0.495 0.460
v  0.495 -0.480 0.460
v  0.500 -0.460 0.460
v  0.500 0.460 0.460
v  0.495 0.480 0.460
v  0.480 0.495 0.460
v  0.460 0.500 0.460
v  -0.460 0.500 -0.460
v  -0.480 0.495 -0.460
v  -0.495 0.480 -0.460
v  -0.500 0.460 -0.460
v  -0.500 -0.460 -0.460
v  -0.495 -0.480 -0.460
v  -0.480 -0.495 -0.460
v  -0.460 -0.500 -0.460
v  0.460 -0.500 -0.460
v  0.480 -0.495 -0.460
v  0.495 -0.480 -0.460
v  0.500 -0.460 -0.460
v  0.500 0.460 -0.460
v  0.495 0.480 -0.460
v  0.480 0.495 -0.460
v  0.460 0.500 -0.460
v  -0.460 0.495 -0.480
v  -0.477 0.490 -0.480
v  -0.490 0.477 -0.480
v  -0.495 0.460 -0.480
v  -0.495 -0.460 -0.480
v  -0.490 -0.477 -0.480
v  -0.477 -0.490 -0.480
v  -0.460 -0.495 -0.480
v  0.460 -0.495 -0.480
v  0.477 -0.490 -0.480
v  0.490 -0.477 -0.480
v  0.495 -0.460 -0.480
v  0.495 0.460 -0.480
v  0.490 0.477 -0.480
v  0.477 0.490 -0.480
v  0.460 0.495 -0.480
v  -0.460 0.480 -0.495
v  -0.470 0.477 -0.495
v  -0.477 0.470 -0.495
v  -0.480 0.460 -0.495
v  -0.480 -0.460 -0.495
v  -0.477 -0.470 -0.495
v  -0.470 -0.477 -0.495
v  -0.460 -0.480 -0.495
v  0.460 -0.480 -0.495
v  0.470 -0.477 -0.495
v  0.477 -0.470 -0.495
v  0.480 -0.460 -0.495
v  0.480 0.460 -0.495
v  0.477 0.470 -0.495
v  0.470 0.477 -0.495
v  0.460 0.480 -0.495
v  -0.460 0.460 -0.500
v  -0.460 -0.460 -0.500
v  0.460 -0.460 -0.500
v  0.460 0.460 -0.500
# 104 vertices

vn -0.109 0.109 0.988
vn -0.109 -0.109 0.988
vn 0.109 -0.109 0.988
vn 0.109 0.109 0.988
vn -0.070 0.514 0.855
vn -0.265 0.460 0.847
vn -0.460 0.265 0.847
vn -0.514 0.070 0.855
vn -0.514 -0.070 0.855
vn -0.460 -0.265 0.847
vn -0.265 -0.460 0.847
vn -0.070 -0.514 0.855
vn 0.070 -0.514 0.855
vn 0.265 -0.460 0.847
vn 0.460 -0.265 0.847
vn 0.514 -0.070 0.855
vn 0.514 0.070 0.855
vn 0.460 0.265 0.847
vn 0.265 0.460 0.847
vn 0.070 0.514 0.855
vn -0.113 0.865 0.488
vn -0.438 0.759 0.482
vn -0.759 0.438 0.482
vn -0.865 0.113 0.488
vn -0.865 -0.113 0.488
vn -0.759 -0.438 0.482
vn -0.438 -0.759 0.482
vn -0.113 -0.865 0.488
vn 0.113 -0.865 0.488
vn 0.438 -0.759 0.482
vn 0.759 -0.438 0.482
vn 0.865 -0.113 0.488
vn 0.865 0.113 0.488
vn 0.759 0.438 0.482
vn 0.438 0.759 0.482
vn 0.113 0.865 0.488
vn -0.128 0.983 0.128
vn -0.496 0.859 0.128
vn -0.859 0.496 0.128
vn -0.983 0.128 0.128
vn -0.983 -0.128 0.128
vn -0.859 -0.496 0.128
vn -0.496 -0.859 0.128
vn -0.128 -0.983 0.128
vn 0.128 -0.983 0.128
vn 0.496 -0.859 0.128
vn 0.859 -0.496 0.128
vn 0.983 -0.128 0.128
vn 0.983 0.128 0.128
vn 0.859 0.496 0.128
vn 0.496 0.859 0.128
vn 0.128 0.983 0.128
vn -0.128 0.983 -0.128
vn -0.496 0.859 -0.128
vn -0.859 0.496 -0.128
vn -0.983 0.128 -0.128
vn -0.983 -0.128 -0.128
vn -0.859 -0.496 -0.128
vn -0.496 -0.859 -0.128
vn -0.128 -0.983 -0.128
vn 0.128 -0.983 -0.128
vn 0.496 -0.859 -0.128
vn 0.859 -0.496 -0.128
vn 0.983 -0.128 -0.128
vn 0.983 0.128 -0.128
vn 0.859 0.496 -0.128
vn 0.496 0.859 -0.128
vn 0.128 0.983 -0.128
vn -0.113 0.865 -0.488
vn -0.438 0.759 -0.482
vn -0.759 0.438 -0.482
vn -0.865 0.113 -0.488
vn -0.865 -0.113 -0.488
vn -0.759 -0.438 -0.482
vn -0.438 -0.759 -0.482
vn -0.113 -0.865 -0.488
vn 0.113 -0.865 -0.488
vn 0.438 -0.759 -0.482
vn 0.759 -0.438 -0.482
vn 0.865 -0.113 -0.488
vn 0.865 0.113 -0.488
vn 0.759 0.438 -0.482
vn 0.438 0.759 -0.482
vn 0.113 0.865 -0.488
vn -0.070 0.514 -0.855
vn -0.265 0.460 -0.847
vn -0.460 0.265 -0.847
vn -0.514 0.070 -0.855
vn -0.514 -0.070 -0.855
vn -0.460 -0.265 -0.847
vn -0.265 -0.460 -0.847
vn -0.070 -0.514 -0.855
vn 0.070 -0.514 -0.855
vn 0.265 -0.460 -0.847
vn 0.460 -0.265 -0.847
vn 0.514 -0.070 -0.855
vn 0.514 0.070 -0.855
vn 0.460 0.265 -0.847
vn 0.265 0.460 -0.847
vn 0.070 0.514 -0.855
vn -0.109 0.109 -0.988
vn -0.109 -0.109 -0.988
vn 0.109 -0.109 -0.988
vn 0.109 0.109 -0.988
# 104 vertex normals

vt 0.034 0.966 0.000
vt 0.034 0.845 0.000
vt 0.155 0.845 0.000
vt 0.155 0.966 0.000
vt 0.034 0.968 0.000
vt 0.033 0.968 0.000
vt 0.032 0.967 0.000
vt 0.032 0.966 0.000
vt 0.032 0.845 0.000
vt 0.032 0.843 0.000
vt 0.033 0.842 0.000
vt 0.034 0.842 0.000
vt 0.155 0.842 0.000
vt 0.157 0.842 0.000
vt 0.158 0.843 0.000
vt 0.158 0.845 0.000
vt 0.158 0.966 0.000
vt 0.158 0.967 0.000
vt 0.157 0.968 0.000
vt 0.155 0.968 0.000
vt 0.919 0.723 0.000
vt 0.919 0.717 0.000
vt 0.925 0.718 0.000
vt 0.922 0.724 0.000
vt 0.929 0.721 0.000
vt 0.925 0.726 0.000
vt 0.931 0.725 0.000
vt 0.926 0.728 0.000
vt 0.030 0.966 0.000
vt 0.030 0.845 0.000
vt 0.663 0.772 0.000
vt 0.660 0.766 0.000
vt 0.665 0.764 0.000
vt 0.667 0.771 0.000
vt 0.671 0.764 0.000
vt 0.670 0.771 0.000
vt 0.675 0.766 0.000
vt 0.672 0.772 0.000
vt 0.034 0.840 0.000
vt 0.155 0.840 0.000
vt 0.064 0.754 0.000
vt 0.060 0.748 0.000
vt 0.066 0.746 0.000
vt 0.067 0.753 0.000
vt 0.071 0.746 0.000
vt 0.070 0.753 0.000
vt 0.075 0.748 0.000
vt 0.072 0.754 0.000
vt 0.160 0.845 0.000
vt 0.160 0.966 0.000
vt 0.423 0.742 0.000
vt 0.427 0.736 0.000
vt 0.431 0.740 0.000
vt 0.426 0.744 0.000
vt 0.625 0.723 0.000
vt 0.621 0.718 0.000
vt 0.625 0.715 0.000
vt 0.627 0.722 0.000
vt 0.630 0.714 0.000
vt 0.630 0.721 0.000
vt 0.155 0.970 0.000
vt 0.034 0.970 0.000
vt 0.938 0.844 0.000
vt 0.936 0.844 0.000
vt 0.936 0.841 0.000
vt 0.938 0.841 0.000
vt 0.926 0.712 0.000
vt 0.932 0.716 0.000
vt 0.314 0.842 0.000
vt 0.314 0.845 0.000
vt 0.312 0.845 0.000
vt 0.312 0.842 0.000
vt 0.190 0.845 0.000
vt 0.190 0.842 0.000
vt 0.188 0.845 0.000
vt 0.188 0.842 0.000
vt 0.663 0.759 0.000
vt 0.670 0.759 0.000
vt 0.781 0.968 0.000
vt 0.778 0.968 0.000
vt 0.778 0.966 0.000
vt 0.781 0.966 0.000
vt 0.778 0.845 0.000
vt 0.781 0.845 0.000
vt 0.778 0.842 0.000
vt 0.781 0.843 0.000
vt 0.064 0.741 0.000
vt 0.070 0.741 0.000
vt 0.625 0.842 0.000
vt 0.626 0.845 0.000
vt 0.623 0.845 0.000
vt 0.623 0.842 0.000
vt 0.502 0.845 0.000
vt 0.502 0.842 0.000
vt 0.499 0.845 0.000
vt 0.500 0.842 0.000
vt 0.435 0.736 0.000
vt 0.438 0.741 0.000
vt 0.433 0.744 0.000
vt 0.938 0.968 0.000
vt 0.936 0.969 0.000
vt 0.936 0.966 0.000
vt 0.938 0.966 0.000
vt 0.813 0.844 0.000
vt 0.813 0.841 0.000
vt 0.316 0.845 0.000
vt 0.316 0.966 0.000
vt 0.314 0.966 0.000
vt 0.312 0.966 0.000
vt 0.190 0.966 0.000
vt 0.188 0.966 0.000
vt 0.186 0.966 0.000
vt 0.186 0.845 0.000
vt 0.657 0.968 0.000
vt 0.657 0.966 0.000
vt 0.657 0.845 0.000
vt 0.657 0.842 0.000
vt 0.628 0.845 0.000
vt 0.628 0.966 0.000
vt 0.626 0.966 0.000
vt 0.623 0.966 0.000
vt 0.502 0.966 0.000
vt 0.499 0.966 0.000
vt 0.497 0.966 0.000
vt 0.497 0.845 0.000
vt 0.813 0.969 0.000
vt 0.813 0.966 0.000
vt 0.811 0.844 0.000
vt 0.811 0.841 0.000
vt 0.396 0.771 0.000
vt 0.395 0.778 0.000
vt 0.389 0.778 0.000
vt 0.389 0.771 0.000
vt 0.314 0.968 0.000
vt 0.312 0.968 0.000
vt 0.190 0.968 0.000
vt 0.188 0.968 0.000
vt 0.632 0.759 0.000
vt 0.632 0.765 0.000
vt 0.626 0.765 0.000
vt 0.626 0.759 0.000
vt 0.655 0.968 0.000
vt 0.655 0.966 0.000
vt 0.655 0.845 0.000
vt 0.655 0.843 0.000
vt 0.071 0.705 0.000
vt 0.071 0.712 0.000
vt 0.065 0.712 0.000
vt 0.065 0.705 0.000
vt 0.625 0.968 0.000
vt 0.623 0.968 0.000
vt 0.502 0.968 0.000
vt 0.500 0.968 0.000
vt 0.396 0.736 0.000
vt 0.395 0.742 0.000
vt 0.389 0.742 0.000
vt 0.389 0.736 0.000
vt 0.811 0.968 0.000
vt 0.811 0.966 0.000
vt 0.400 0.779 0.000
vt 0.397 0.784 0.000
vt 0.394 0.784 0.000
vt 0.391 0.784 0.000
vt 0.388 0.784 0.000
vt 0.384 0.779 0.000
vt 0.312 0.970 0.000
vt 0.190 0.970 0.000
vt 0.637 0.766 0.000
vt 0.634 0.771 0.000
vt 0.631 0.771 0.000
vt 0.627 0.771 0.000
vt 0.625 0.771 0.000
vt 0.621 0.766 0.000
vt 0.653 0.966 0.000
vt 0.653 0.845 0.000
vt 0.076 0.712 0.000
vt 0.073 0.718 0.000
vt 0.070 0.717 0.000
vt 0.066 0.717 0.000
vt 0.064 0.718 0.000
vt 0.060 0.712 0.000
vt 0.623 0.970 0.000
vt 0.502 0.970 0.000
vt 0.400 0.743 0.000
vt 0.397 0.748 0.000
vt 0.394 0.748 0.000
vt 0.391 0.748 0.000
vt 0.388 0.748 0.000
vt 0.384 0.743 0.000
vt 0.809 0.966 0.000
vt 0.809 0.844 0.000
vt 0.346 0.842 0.000
vt 0.346 0.845 0.000
vt 0.344 0.842 0.000
vt 0.343 0.843 0.000
vt 0.343 0.845 0.000
vt 0.346 0.966 0.000
vt 0.343 0.966 0.000
vt 0.343 0.967 0.000
vt 0.344 0.968 0.000
vt 0.346 0.968 0.000
vt 0.467 0.966 0.000
vt 0.467 0.968 0.000
vt 0.468 0.968 0.000
vt 0.469 0.967 0.000
vt 0.469 0.966 0.000
vt 0.467 0.845 0.000
vt 0.469 0.845 0.000
vt 0.469 0.843 0.000
vt 0.468 0.842 0.000
vt 0.467 0.842 0.000
# 211 texture coords

g ChamferBox001
usemtl 01___Default
f 1/1/1 2/2/2 3/3/3 
f 1/1/1 3/3/3 4/4/4 
f 1/1/1 5/5/5 6/6/6 
f 1/1/1 6/6/6 7/7/7 
f 1/1/1 7/7/7 8/8/8 
f 1/1/1 8/8/8 9/9/9 
f 1/1/1 9/9/9 2/2/2 
f 2/2/2 9/9/9 10/10/10 
f 2/2/2 10/10/10 11/11/11 
f 2/2/2 11/11/11 12/12/12 
f 2/2/2 12/12/12 13/13/13 
f 2/2/2 13/13/13 3/3/3 
f 3/3/3 13/13/13 14/14/14 
f 3/3/3 14/14/14 15/15/15 
f 3/3/3 15/15/15 16/16/16 
f 3/3/3 16/16/16 17/17/17 
f 3/3/3 17/17/17 4/4/4 
f 4/4/4 17/17/17 18/18/18 
f 4/4/4 18/18/18 19/19/19 
f 4/4/4 19/19/19 20/20/20 
f 4/4/4 20/20/20 5/5/5 
f 4/4/4 5/5/5 1/1/1 
f 5/21/5 21/22/21 22/23/22 
f 5/21/5 22/23/22 6/24/6 
f 6/24/6 22/23/22 23/25/23 
f 6/24/6 23/25/23 7/26/7 
f 7/26/7 23/25/23 24/27/24 
f 7/26/7 24/27/24 8/28/8 
f 8/8/8 24/29/24 25/30/25 
f 8/8/8 25/30/25 9/9/9 
f 9/31/9 25/32/25 26/33/26 
f 9/31/9 26/33/26 10/34/10 
f 10/34/10 26/33/26 27/35/27 
f 10/34/10 27/35/27 11/36/11 
f 11/36/11 27/35/27 28/37/28 
f 11/36/11 28/37/28 12/38/12 
f 12/12/12 28/39/28 29/40/29 
f 12/12/12 29/40/29 13/13/13 
f 13/41/13 29/42/29 30/43/30 
f 13/41/13 30/43/30 14/44/14 
f 14/44/14 30/43/30 31/45/31 
f 14/44/14 31/45/31 15/46/15 
f 15/46/15 31/45/31 32/47/32 
f 15/46/15 32/47/32 16/48/16 
f 16/16/16 32/49/32 33/50/33 
f 16/16/16 33/50/33 17/17/17 
f 17/51/17 33/52/33 34/53/34 
f 17/51/17 34/53/34 18/54/18 
f 18/55/18 34/56/34 35/57/35 
f 18/55/18 35/57/35 19/58/19 
f 19/58/19 35/57/35 36/59/36 
f 19/58/19 36/59/36 20/60/20 
f 20/20/20 36/61/36 21/62/21 
f 20/20/20 21/62/21 5/5/5 
f 21/63/21 37/64/37 38/65/38 
f 21/63/21 38/65/38 22/66/22 
f 22/23/22 38/67/38 39/68/39 
f 22/23/22 39/68/39 23/25/23 
f 23/69/23 39/70/39 40/71/40 
f 23/69/23 40/71/40 24/72/24 
f 24/72/24 40/71/40 41/73/41 
f 24/72/24 41/73/41 25/74/25 
f 25/74/25 41/73/41 42/75/42 
f 25/74/25 42/75/42 26/76/26 
f 26/33/26 42/77/42 43/78/43 
f 26/33/26 43/78/43 27/35/27 
f 27/79/27 43/80/43 44/81/44 
f 27/79/27 44/81/44 28/82/28 
f 28/82/28 44/81/44 45/83/45 
f 28/82/28 45/83/45 29/84/29 
f 29/84/29 45/83/45 46/85/46 
f 29/84/29 46/85/46 30/86/30 
f 30/43/30 46/87/46 47/88/47 
f 30/43/30 47/88/47 31/45/31 
f 31/89/31 47/90/47 48/91/48 
f 31/89/31 48/91/48 32/92/32 
f 32/92/32 48/91/48 49/93/49 
f 32/92/32 49/93/49 33/94/33 
f 33/94/33 49/93/49 50/95/50 
f 33/94/33 50/95/50 34/96/34 
f 34/53/34 50/97/50 51/98/51 
f 34/53/34 51/98/51 35/99/35 
f 35/100/35 51/101/51 52/102/52 
f 35/100/35 52/102/52 36/103/36 
f 36/103/36 52/102/52 37/64/37 
f 36/103/36 37/64/37 21/63/21 
f 37/64/37 53/104/53 54/105/54 
f 37/64/37 54/105/54 38/65/38 
f 38/106/38 54/107/54 55/108/55 
f 38/106/38 55/108/55 39/70/39 
f 39/70/39 55/108/55 56/109/56 
f 39/70/39 56/109/56 40/71/40 
f 40/71/40 56/109/56 57/110/57 
f 40/71/40 57/110/57 41/73/41 
f 41/73/41 57/110/57 58/111/58 
f 41/73/41 58/111/58 42/75/42 
f 42/75/42 58/111/58 59/112/59 
f 42/75/42 59/112/59 43/113/43 
f 43/80/43 59/114/59 60/115/60 
f 43/80/43 60/115/60 44/81/44 
f 44/81/44 60/115/60 61/116/61 
f 44/81/44 61/116/61 45/83/45 
f 45/83/45 61/116/61 62/117/62 
f 45/83/45 62/117/62 46/85/46 
f 46/118/46 62/119/62 63/120/63 
f 46/118/46 63/120/63 47/90/47 
f 47/90/47 63/120/63 64/121/64 
f 47/90/47 64/121/64 48/91/48 
f 48/91/48 64/121/64 65/122/65 
f 48/91/48 65/122/65 49/93/49 
f 49/93/49 65/122/65 66/123/66 
f 49/93/49 66/123/66 50/95/50 
f 50/95/50 66/123/66 67/124/67 
f 50/95/50 67/124/67 51/125/51 
f 51/101/51 67/126/67 68/127/68 
f 51/101/51 68/127/68 52/102/52 
f 52/102/52 68/127/68 53/104/53 
f 52/102/52 53/104/53 37/64/37 
f 53/104/53 69/128/69 70/129/70 
f 53/104/53 70/129/70 54/105/54 
f 54/130/54 70/131/70 71/132/71 
f 54/130/54 71/132/71 55/133/55 
f 55/108/55 71/134/71 72/135/72 
f 55/108/55 72/135/72 56/109/56 
f 56/109/56 72/135/72 73/136/73 
f 56/109/56 73/136/73 57/110/57 
f 57/110/57 73/136/73 74/137/74 
f 57/110/57 74/137/74 58/111/58 
f 58/138/58 74/139/74 75/140/75 
f 58/138/58 75/140/75 59/141/59 
f 59/114/59 75/142/75 76/143/76 
f 59/114/59 76/143/76 60/115/60 
f 60/115/60 76/143/76 77/144/77 
f 60/115/60 77/144/77 61/116/61 
f 61/116/61 77/144/77 78/145/78 
f 61/116/61 78/145/78 62/117/62 
f 62/146/62 78/147/78 79/148/79 
f 62/146/62 79/148/79 63/149/63 
f 63/120/63 79/150/79 80/151/80 
f 63/120/63 80/151/80 64/121/64 
f 64/121/64 80/151/80 81/152/81 
f 64/121/64 81/152/81 65/122/65 
f 65/122/65 81/152/81 82/153/82 
f 65/122/65 82/153/82 66/123/66 
f 66/154/66 82/155/82 83/156/83 
f 66/154/66 83/156/83 67/157/67 
f 67/126/67 83/158/83 84/159/84 
f 67/126/67 84/159/84 68/127/68 
f 68/127/68 84/159/84 69/128/69 
f 68/127/68 69/128/69 53/104/53 
f 69/160/69 85/161/85 86/162/86 
f 69/160/69 86/162/86 70/131/70 
f 70/131/70 86/162/86 87/163/87 
f 70/131/70 87/163/87 71/132/71 
f 71/132/71 87/163/87 88/164/88 
f 71/132/71 88/164/88 72/165/72 
f 72/135/72 88/166/88 89/167/89 
f 72/135/72 89/167/89 73/136/73 
f 73/168/73 89/169/89 90/170/90 
f 73/168/73 90/170/90 74/139/74 
f 74/139/74 90/170/90 91/171/91 
f 74/139/74 91/171/91 75/140/75 
f 75/140/75 91/171/91 92/172/92 
f 75/140/75 92/172/92 76/173/76 
f 76/143/76 92/174/92 93/175/93 
f 76/143/76 93/175/93 77/144/77 
f 77/176/77 93/177/93 94/178/94 
f 77/176/77 94/178/94 78/147/78 
f 78/147/78 94/178/94 95/179/95 
f 78/147/78 95/179/95 79/148/79 
f 79/148/79 95/179/95 96/180/96 
f 79/148/79 96/180/96 80/181/80 
f 80/151/80 96/182/96 97/183/97 
f 80/151/80 97/183/97 81/152/81 
f 81/184/81 97/185/97 98/186/98 
f 81/184/81 98/186/98 82/155/82 
f 82/155/82 98/186/98 99/187/99 
f 82/155/82 99/187/99 83/156/83 
f 83/156/83 99/187/99 100/188/100 
f 83/156/83 100/188/100 84/189/84 
f 84/159/84 100/190/100 85/191/85 
f 84/159/84 85/191/85 69/128/69 
f 85/192/85 101/193/101 86/194/86 
f 86/194/86 101/193/101 87/195/87 
f 87/195/87 101/193/101 88/196/88 
f 88/196/88 101/193/101 102/197/102 
f 88/196/88 102/197/102 89/198/89 
f 89/198/89 102/197/102 90/199/90 
f 90/199/90 102/197/102 91/200/91 
f 91/200/91 102/197/102 92/201/92 
f 92/201/92 102/197/102 103/202/103 
f 92/201/92 103/202/103 93/203/93 
f 93/203/93 103/202/103 94/204/94 
f 94/204/94 103/202/103 95/205/95 
f 95/205/95 103/202/103 96/206/96 
f 96/206/96 103/202/103 104/207/104 
f 96/206/96 104/207/104 97/208/97 
f 97/208/97 104/207/104 98/209/98 
f 98/209/98 104/207/104 99/210/99 
f 99/210/99 104/207/104 100/211/100 
f 100/211/100 104/207/104 101/193/101 
f 100/211/100 101/193/101 85/192/85 
f 104/207/104 103/202/103 102/197/102 
f 104/207/104 102/197/102 101/193/101 
# 204 faces

