# 3ds Max Wavefront OBJ Exporter v0.97b - (c)2007 guruware
# 创建的文件:21.11.2012 20:17:00

mtllib cubeWithOnePic.mtl

#
# object Box001
#

v  -0.500 -0.500 0.500
v  -0.500 -0.500 -0.500
v  0.500 -0.500 -0.500
v  0.500 -0.500 0.500
v  -0.500 0.500 0.500
v  0.500 0.500 0.500
v  0.500 0.500 -0.500
v  -0.500 0.500 -0.500
# 8 vertices

vn 0.000 -1.000 -0.000
vn 0.000 1.000 -0.000
vn 0.000 0.000 1.000
vn 1.000 0.000 -0.000
vn 0.000 0.000 -1.000
vn -1.000 0.000 -0.000
# 6 vertex normals

vt 0.504 0.621 0.000
vt 0.504 0.383 0.000
vt 0.742 0.383 0.000
vt 0.742 0.621 0.000
vt 0.506 0.631 0.000
vt 0.740 0.631 0.000
vt 0.740 0.865 0.000
vt 0.506 0.865 0.000
vt 0.508 0.145 0.000
vt 0.740 0.145 0.000
vt 0.740 0.372 0.000
vt 0.508 0.372 0.000
vt 0.761 0.392 0.000
vt 0.986 0.392 0.000
vt 0.986 0.617 0.000
vt 0.761 0.617 0.000
vt 0.257 0.387 0.000
vt 0.491 0.387 0.000
vt 0.491 0.616 0.000
vt 0.257 0.616 0.000
vt 0.010 0.390 0.000
vt 0.235 0.390 0.000
vt 0.235 0.615 0.000
vt 0.010 0.615 0.000
# 24 texture coords

g Box001
usemtl 03___Default
f 1/1/1 2/2/1 3/3/1 
f 3/3/1 4/4/1 1/1/1 
f 5/5/2 6/6/2 7/7/2 
f 7/7/2 8/8/2 5/5/2 
f 1/9/3 4/10/3 6/11/3 
f 6/11/3 5/12/3 1/9/3 
f 4/13/4 3/14/4 7/15/4 
f 7/15/4 6/16/4 4/13/4 
f 3/17/5 2/18/5 8/19/5 
f 8/19/5 7/20/5 3/17/5 
f 2/21/6 1/22/6 5/23/6 
f 5/23/6 8/24/6 2/21/6 
# 12 faces

